# xmcd
#
# Track frame offsets: 
#        150
#        12004
#        24030
#        36222
#        48730
#        61483
#        75141
#        87819
#        96724
#        109529
#        123883
#        136901
#        151062
#        164738
#        177850
#        191356
#        202487
#        214017
#        226376
#        239931
#
# Disc length: 3373 seconds
#
# Revision: 0
# Processed by: cddbd v1.5.2PL0 Copyright (c) Steve Scherf et al.
# Submitted via: ExactAudioCopy v0.99pb5
#
DISCID=0a0d2b14
DTITLE=Merle Travis - The Guitar Picker CD1 - Divorce Me C. O. D.
DYEAR=1900
DGENRE=Country
TTITLE0=Cincinnati Lou
TTITLE1=I Used To Work In Chicago
TTITLE2=No Vacancy
TTITLE3=Missouri
TTITLE4=A Fool At The Steering Wheel
TTITLE5=Divorce Me C. 0. D.
TTITLE6=What A Shame
TTITLE7=Nine Pound Hammer
TTITLE8=Dark As A Dungeon
TTITLE9=Over By Number Nine
TTITLE10=Sixteen Tons
TTITLE11=John Henry
TTITLE12=That's All
TTITLE13=I Am A Pilgrim
TTITLE14=The Covered Waggon Rolled Right Along
TTITLE15=A Little Too Fer
TTITLE16=When Rosie Riccoola Do The Hoola Ma Boola
TTITLE17=Oh Why, Oh Why Did I Ever Leave Wyoming
TTITLE18=So Round, So Firm, So Fully Packed
TTITLE19=Sweet Temptation
EXTD=
EXTT0=
EXTT1=
EXTT2=
EXTT3=
EXTT4=
EXTT5=
EXTT6=
EXTT7=
EXTT8=
EXTT9=
EXTT10=
EXTT11=
EXTT12=
EXTT13=
EXTT14=
EXTT15=
EXTT16=
EXTT17=
EXTT18=
EXTT19=
PLAYORDER=
